<?xml version="1.0" encoding="utf-8"?>
<!-- Generator: Adobe Illustrator 15.0.0, SVG Export Plug-In . SVG Version: 6.00 Build 0)  -->
<!DOCTYPE svg PUBLIC "-//W3C//DTD SVG 1.1//EN" "http://www.w3.org/Graphics/SVG/1.1/DTD/svg11.dtd">
<svg version="1.1" id="Capa_1" xmlns="http://www.w3.org/2000/svg" xmlns:xlink="http://www.w3.org/1999/xlink" x="0px" y="0px"
	 width="207px" height="35px" viewBox="-94.821 2.345 207 35" enable-background="new -94.821 2.345 207 35" xml:space="preserve">
<g>
	<g>
		<path fill="#0046FE" d="M-94.34,19.602c0,4.206,3.008,7.231,7.141,7.231c1.682,0,3.095-0.416,4.557-1.391l-1.242-2.562
			c-0.903,0.523-1.633,0.73-2.562,0.73c-2.41,0-4.178-1.321-4.178-4.068c0-2.746,1.813-4.068,4.108-4.068
			c0.91,0,1.641,0.162,2.631,0.603l1.172-2.898c-1.523-0.719-2.648-0.974-4.156-0.974C-91.198,12.205-94.34,15.312-94.34,19.602
			 M-74.332,26.88c-4.226,0-7.298-3.094-7.298-7.337c0-4.207,3.096-7.385,7.188-7.385c4.132,0,7.03,3.026,7.03,7.337v0.824h-10.479
			v0.197c0.023,1.914,1.438,3.21,3.512,3.21c1.483,0,2.678-0.626,3.229-1.691l3.206,0.742C-68.873,25.396-71.197,26.88-74.332,26.88
			 M-74.442,15.08c-1.97,0-3.229,1.391-3.425,2.759l-0.023,0.22h6.851l-0.023-0.22C-71.284,16.251-72.698,15.08-74.442,15.08
			 M-61.534,19.229c0,2.297,1.523,3.988,3.644,3.988c2.081,0,3.647-1.715,3.647-3.988c0-2.27-1.524-3.928-3.647-3.928
			C-60.011,15.301-61.534,16.959-61.534,19.229 M-54.261,13.712v-1.482h3.6v15.844c0,3.025-2.454,5.484-5.501,5.484h-5.239v-3.455
			h4.751c1.305,0,2.342-1.03,2.342-2.343v-2.85h-0.574l-0.068,0.069c-0.614,0.754-1.61,1.612-3.755,1.612
			c-3.669,0-6.568-3.247-6.568-7.385c0-4.104,2.788-7.338,6.371-7.338c2.145,0,3.181,0.916,3.977,1.773l0.069,0.069H-54.261z
			 M-35.188,26.927c-3.669,0-6.565-3.247-6.565-7.384c0-4.115,2.785-7.338,6.346-7.338c1.682,0,3.025,0.603,3.952,1.762l0.069,0.07
			h0.574V6.456h3.63v20.099h-3.63v-1.355h-0.574l-0.069,0.071C-32.271,26.369-33.531,26.927-35.188,26.927 M-34.411,15.612
			c-2.128,0-3.651,1.647-3.651,3.953c0,2.295,1.548,3.954,3.669,3.954c2.08,0,3.651-1.693,3.651-3.954
			C-30.742,17.234-32.271,15.612-34.411,15.612 M-47.717,26.438h3.599V12.808h-3.599V26.438z M-45.863,10.524
			c-1.257,0-2.189-0.915-2.189-2.144c0-1.193,0.949-2.099,2.189-2.099c1.218,0,2.167,0.927,2.167,2.099
			C-43.696,9.609-44.623,10.524-45.863,10.524"/>
		<g opacity="0.64">
			<g>
				<g>
					<path fill="#002C52" d="M-5.194,17.179c-1.055,1.029-2.699,1.54-4.879,1.54h-3.605v7.836h-2.445V7.824h6.028
						c2.12,0,3.708,0.51,4.82,1.53c1.102,1.019,1.646,2.34,1.646,3.951C-3.606,14.848-4.139,16.157-5.194,17.179z M-7.07,15.821
						c0.636-0.591,0.974-1.437,0.974-2.516c0-2.316-1.334-3.465-3.977-3.465h-3.605v6.873h3.605
						C-8.729,16.714-7.709,16.424-7.07,15.821z"/>
					<path fill="#002C52" d="M2.863,12.252c0.786-0.463,1.761-0.719,2.909-0.719v2.526H5.134c-2.746,0-4.115,1.484-4.115,4.462
						v8.011h-2.445V11.834h2.445v2.389C1.436,13.377,2.052,12.716,2.863,12.252z"/>
					<path fill="#002C52" d="M7.918,8.959C7.592,8.624,7.429,8.241,7.429,7.777c0-0.463,0.163-0.858,0.489-1.159
						C8.24,6.294,8.622,6.132,9.087,6.132c0.441,0,0.822,0.15,1.148,0.486c0.313,0.324,0.463,0.696,0.463,1.159
						c0,0.464-0.15,0.869-0.463,1.182C9.935,9.284,9.552,9.446,9.087,9.446C8.647,9.446,8.24,9.262,7.918,8.959z M10.282,11.834
						v14.721H7.824V11.834H10.282z"/>
					<path fill="#002C52" d="M34.6,12.273c0.905,0.466,1.6,1.185,2.11,2.136c0.511,0.949,0.789,2.108,0.789,3.477v8.693h-2.41
						v-8.346c0-1.462-0.36-2.574-1.091-3.386c-0.729-0.765-1.703-1.158-2.943-1.158c-1.275,0-2.273,0.394-3.025,1.205
						c-0.755,0.823-1.124,1.992-1.124,3.546v8.114h-2.411v-8.347c0-1.458-0.349-2.571-1.09-3.372
						c-0.721-0.776-1.694-1.17-2.935-1.17c-1.287,0-2.283,0.394-3.025,1.206c-0.752,0.821-1.134,1.993-1.134,3.547v8.113h-2.448
						V11.834h2.448v2.109c0.486-0.765,1.134-1.367,1.945-1.761c0.823-0.418,1.729-0.627,2.702-0.627c1.24,0,2.317,0.302,3.27,0.848
						c0.949,0.544,1.657,1.366,2.12,2.444c0.417-1.031,1.09-1.831,2.039-2.4c0.951-0.578,2.017-0.868,3.153-0.868
						C32.677,11.556,33.72,11.789,34.6,12.273z"/>
					<path fill="#002C52" d="M40.919,15.173c0.613-1.136,1.438-2.017,2.515-2.666c1.067-0.615,2.261-0.951,3.57-0.951
						c1.274,0,2.399,0.302,3.351,0.848c0.949,0.544,1.657,1.263,2.12,2.097v-2.666h2.48v14.721h-2.48v-2.747
						c-0.486,0.871-1.206,1.566-2.154,2.146c-0.952,0.579-2.089,0.833-3.339,0.833c-1.312,0-2.505-0.322-3.548-0.972
						c-1.055-0.638-1.878-1.543-2.493-2.714c-0.613-1.169-0.914-2.503-0.914-3.987C39.992,17.619,40.305,16.308,40.919,15.173z
						 M51.792,16.251c-0.441-0.823-1.055-1.46-1.819-1.9c-0.742-0.453-1.578-0.661-2.506-0.661c-0.914,0-1.762,0.208-2.502,0.637
						c-0.754,0.418-1.346,1.055-1.785,1.878c-0.441,0.823-0.673,1.797-0.673,2.896c0,1.125,0.231,2.099,0.673,2.935
						c0.439,0.846,1.031,1.459,1.785,1.9c0.74,0.442,1.588,0.673,2.502,0.673c0.905,0,1.739-0.23,2.506-0.673
						c0.765-0.441,1.378-1.076,1.819-1.9c0.451-0.836,0.661-1.81,0.661-2.922C52.453,18.036,52.243,17.085,51.792,16.251z"/>
					<path fill="#002C52" d="M64.044,24.297l4.568-12.463h2.617l-5.771,14.721h-2.853l-5.798-14.721h2.634L64.044,24.297z"/>
					<path fill="#002C52" d="M85.883,20.087H74.118c0.081,1.46,0.591,2.598,1.483,3.407c0.902,0.824,2.005,1.219,3.292,1.219
						c1.055,0,1.947-0.244,2.653-0.729c0.707-0.489,1.183-1.149,1.483-1.973h2.621c-0.395,1.415-1.158,2.574-2.364,3.456
						c-1.159,0.881-2.644,1.319-4.394,1.319c-1.391,0-2.656-0.301-3.755-0.948c-1.103-0.614-1.973-1.52-2.587-2.666
						c-0.626-1.161-0.949-2.505-0.949-4.035c0-1.518,0.301-2.851,0.903-3.987c0.626-1.159,1.461-2.04,2.561-2.665
						c1.103-0.615,2.364-0.929,3.802-0.929c1.394,0,2.634,0.313,3.723,0.904c1.078,0.627,1.902,1.438,2.469,2.527
						c0.567,1.066,0.892,2.272,0.892,3.606C85.964,19.079,85.951,19.577,85.883,20.087z M82.823,15.693
						c-0.42-0.66-0.974-1.169-1.669-1.517c-0.72-0.36-1.484-0.534-2.342-0.534c-1.253,0-2.309,0.395-3.177,1.171
						c-0.857,0.799-1.368,1.877-1.471,3.27h9.308C83.447,17.179,83.215,16.379,82.823,15.693z"/>
					<path fill="#002C52" d="M92.907,12.252c0.789-0.463,1.763-0.719,2.922-0.719v2.526h-0.651c-2.734,0-4.103,1.484-4.103,4.462
						v8.011h-2.458V11.834h2.458v2.389C91.491,13.377,92.118,12.716,92.907,12.252z"/>
					<path fill="#002C52" d="M97.658,15.173c0.626-1.136,1.438-2.017,2.527-2.666c1.056-0.615,2.251-0.951,3.549-0.951
						c1.285,0,2.41,0.302,3.362,0.848c0.949,0.544,1.656,1.263,2.12,2.097v-2.666h2.48v14.721h-2.48v-2.747
						c-0.476,0.871-1.218,1.566-2.167,2.146c-0.952,0.579-2.075,0.833-3.339,0.833c-1.299,0-2.492-0.322-3.525-0.972
						c-1.064-0.638-1.889-1.543-2.503-2.714c-0.626-1.169-0.904-2.503-0.904-3.987C96.731,17.619,97.035,16.308,97.658,15.173z
						 M108.531,16.251c-0.438-0.823-1.065-1.46-1.807-1.9c-0.755-0.453-1.601-0.661-2.527-0.661c-0.905,0-1.738,0.208-2.493,0.637
						c-0.752,0.418-1.355,1.055-1.795,1.878c-0.44,0.823-0.66,1.797-0.66,2.896c0,1.125,0.22,2.099,0.66,2.935
						c0.439,0.846,1.043,1.459,1.795,1.9c0.755,0.442,1.588,0.673,2.493,0.673s1.751-0.23,2.527-0.673
						c0.741-0.441,1.368-1.076,1.807-1.9c0.441-0.836,0.673-1.81,0.673-2.922C109.204,18.036,108.973,17.085,108.531,16.251z"/>
				</g>
			</g>
		</g>
	</g>
</g>
</svg>
